<?xml version="1.0" encoding="utf-8"?>
<!-- Generator: Adobe Illustrator 19.2.1, SVG Export Plug-In . SVG Version: 6.00 Build 0)  -->
<svg version="1.1" id="Layer_1" xmlns="http://www.w3.org/2000/svg" xmlns:xlink="http://www.w3.org/1999/xlink" x="0px" y="0px"
	 viewBox="0 0 300 225" style="enable-background:new 0 0 300 225;" xml:space="preserve">
<style type="text/css">
	.st0{fill:#0092BF;}
	.st1{font-family:'ArialMT';}
	.st2{font-size:15.9047px;}
	.st3{font-size:58.9833px;}
	.st4{letter-spacing:7.3;}
</style>
<g>
	<g>
		<g>
			<text transform="matrix(0.9569 0 0 1 8.166 219.8359)" class="st0 st1 st2">San Angelico Museum of Contemporary Art</text>
		</g>
		<g>
			<text transform="matrix(0.9569 0 0 1 8.166 199.3867)" class="st0 st1 st3 st4">SAMOCA</text>
		</g>
	</g>
	<g>
		<g>
			<polygon class="st0" points="88.4,26.1 88.4,15.2 117.4,0 144,17.6 144.7,28.5 			"/>
			<polygon class="st0" points="199,63.6 181.1,63.6 171.9,56.7 171,48.4 165.1,48.1 165.9,70.4 199.5,71.2 			"/>
			<g>
				<polygon class="st0" points="71.2,107.4 22,110.2 21.4,114.9 71,112.5 				"/>
				<polygon class="st0" points="20.5,122.1 70.7,120 70.9,116.1 21,118.5 				"/>
				<polyline class="st0" points="19.6,129.4 70.4,127.6 70.3,131.3 19.2,132.9 18.7,136.9 70.2,135 70,138.8 18.2,140.4 
					17.8,144.4 69.9,142.6 70.6,123.6 20.1,125.6 				"/>
			</g>
			<g>
				<polygon class="st0" points="283.8,133.1 282.5,126.7 194.6,129 166.8,133.4 166.9,137.1 193.4,134 				"/>
				<polygon class="st0" points="279.3,111.8 278.1,106.1 193.2,110.5 166.3,118.8 166.4,122.5 192.3,116 				"/>
				<polygon class="st0" points="281.6,122.3 280.3,116.5 193.2,120.2 166.5,126 166.6,129.6 194.4,124.8 				"/>
				<polygon class="st0" points="277.2,101.7 275.7,94.2 221.8,97.7 219.9,83.8 205.7,71.5 208.4,97.9 190.1,100.3 165.9,107.8 
					166.2,115.3 192.3,106.6 				"/>
				<polyline class="st0" points="167.2,143.2 195.8,142.7 286,145.8 284.8,137.8 193,138.1 167,140.3 				"/>
			</g>
			<polygon class="st0" points="73.5,42.7 53.3,42.4 52.5,57.3 19.6,56.7 19,68.7 2.2,79.2 0,112.2 22,110.2 25.3,64 72.6,66.2 			
				"/>
			<polygon class="st0" points="104,52.4 117.1,52.6 117.3,39.1 111.4,34.9 104.2,38.3 			"/>
			<polygon class="st0" points="120.8,52.9 133.9,53.1 134.1,39.6 128.2,35.3 121,38.7 			"/>
			<path class="st0" d="M95.4,147.1l0.3-38.4c0-14.2,11-25.6,24.5-25.6l0,0c14.9,0,24.5,11.5,24.5,25.6v38.4"/>
		</g>
	</g>
</g>
</svg>
