<svg width="640" height="480" xmlns="http://www.w3.org/2000/svg" xmlns:svg="http://www.w3.org/2000/svg">
 <!-- Created with SVG-edit - http://svg-edit.googlecode.com/ -->
 <g>
  <title>Layer 1</title>
  <polygon stroke="#000000" transform="rotate(72.95747375488281 269.0816345214844,209.23767089843747) " stroke-width="5" points="269.08160400390625,-22.696224212646484 314.961181640625,150.744384765625 454.66845703125,154.48550415039062 343.31634521484375,265.4188232421875 383.78057861328125,441.17156982421875 269.08160400390625,336.29150390625 154.38265991210938,441.17156982421875 194.84689331054688,265.4188232421875 83.49479675292969,154.48550415039062 223.2020263671875,150.744384765625 269.08160400390625,-22.696224212646484 314.961181640625,150.744384765625 " strokeWidth="5" strokecolor="#000000" fill="#ff007f" orient="point" r2="102.56792" r="256.41979" point="5" shape="star" id="svg_5" cy="126" cx="254"/>
  <polygon stroke="#000000" transform="rotate(-24.56793785095215 383.99999999999983,242.0560607910155) " stroke-width="5" points="384,81.97830963134766 427.3777770996094,201.68475341796875 559.4667663574219,204.26683044433594 454.18670654296875,280.83154296875 492.4444274902344,402.1337890625 384,329.7469787597656 275.5555725097656,402.1337890625 313.8133087158203,280.83154296875 208.53323364257812,204.26683044433594 340.6222381591797,201.68475341796875 384,81.97830963134766 427.3777770996094,201.68475341796875 " strokeWidth="5" strokecolor="#000000" fill="#ffff00" orient="point" r2="98.20324" r="245.50809" point="5" shape="star" id="svg_4" cy="175" cx="292"/>
  <polygon stroke-width="5" stroke="#000000" points="393,168.08999529919635 412.7284253131698,224.84615207958726 472.80315675305627,226.07038254936995 424.92126270122253,262.37184698025203 442.32106328292446,319.8846198010319 393,285.5640018803215 343.67893671707554,319.8846198010319 361.07873729877747,262.37184698025203 313.19684324694373,226.07038254936995 373.2715746868302,224.84615207958726 393,168.08999529919635 412.7284253131698,224.84615207958726 " strokeWidth="5" strokecolor="#000000" fill="#ff7f00" orient="point" r2="33.564" r="83.91" point="5" shape="star" id="svg_2" cy="252" cx="393"/>
  <polygon transform="rotate(29.485803604125977 458,221.74993896484364) " stroke-width="5" stroke="#000000" points="458,181.49282836914062 468.4642639160156,211.59716796875 500.328857421875,212.24652099609375 474.9315185546875,231.50137329101562 484.16064453125,262.007080078125 458,243.8028564453125 431.83935546875,262.007080078125 441.0684814453125,231.50137329101562 415.671142578125,212.24652099609375 447.5357360839844,211.59716796875 458,181.49282836914062 468.4642639160156,211.59716796875 " strokeWidth="5" strokecolor="#000000" fill="#FF0000" orient="point" r2="17.80287" r="44.50718" point="5" shape="star" id="svg_1" cy="125" cx="207"/>
 </g>
</svg>